<svg width="156" height="36" viewBox="0 0 156 36" fill="none" xmlns="http://www.w3.org/2000/svg">
<path fill-rule="evenodd" clip-rule="evenodd" d="M77.0149 11.7216C72.6277 11.7216 71.1171 14.1801 71.1171 14.1801C71.1171 14.1801 69.5518 11.7216 66.2082 11.7216C62.8645 11.7216 61.4113 13.4249 61.4085 13.4359C61.1408 12.452 60.3596 11.7134 59.2969 11.7134C57.9666 11.7134 56.8903 12.7993 56.8903 14.1415V27.5691C56.8903 28.9113 57.9693 29.9972 59.2969 29.9972C60.6273 29.9972 61.7036 28.9086 61.7036 27.5691C61.7036 27.5691 61.7036 22.4786 61.7036 18.5677C61.7036 17.2338 63.1241 15.9936 64.7385 15.9936C66.353 15.9936 67.7926 17.2834 67.7926 18.5705C67.7926 22.4814 67.7926 27.5691 67.7926 27.5691C67.7926 28.9113 68.8689 29.9972 70.1992 29.9972C71.5296 29.9972 72.6059 28.9086 72.6059 27.5691C72.6059 27.5691 72.6059 22.4814 72.6059 18.5677C72.6059 17.2338 74.1548 15.9963 75.7883 15.9963C77.4219 15.9963 78.6949 17.2586 78.6949 18.565C78.6949 22.4786 78.6949 27.5691 78.6949 27.5691C78.6949 28.9113 79.7712 29.9972 81.1015 29.9972C82.4319 29.9972 83.5082 28.9086 83.5082 27.5691C83.5082 27.5691 83.5082 20.3427 83.5082 18.5567C83.5055 14.8663 81.3993 11.7216 77.0149 11.7216ZM50.1675 19.5847C48.34 18.78 45.4553 18.0937 45.4553 16.8342C45.4553 15.5774 46.832 15.5471 47.2527 15.5471C47.6734 15.5471 48.8563 15.7621 49.5146 16.1259C50.1729 16.4924 50.6783 17.107 51.4705 17.1732C52.1534 17.231 52.4758 17.2311 53.1396 16.4952C53.7624 15.8062 53.8936 14.2324 52.3993 13.2402C50.8723 12.226 49.6812 11.7161 47.2609 11.7161C44.8406 11.7161 41.008 12.463 41.008 16.9747C41.008 20.6872 44.6139 21.8861 45.8486 22.429C47.0834 22.972 49.2387 23.4819 49.2387 24.5926C49.2387 25.7033 48.4602 26.1387 47.1653 26.1387C45.8705 26.1387 44.8051 25.5214 44.2533 25.1245C43.7015 24.7248 43.0186 23.9642 41.8931 23.9642C40.7676 23.9642 40 24.7745 40 26.0312C40 27.288 42.3848 29.9945 46.9359 29.9945C51.4869 29.9945 53.7761 27.492 53.7761 24.5678C53.7761 21.6435 51.995 20.3895 50.1675 19.5847ZM95.3994 16.1396C97.7541 16.1396 98.8304 17.5645 99.0818 17.8539C99.3331 18.1433 99.609 18.565 100.639 18.565C101.669 18.565 102.761 18.0606 102.761 16.5668C102.761 14.9187 100.538 11.7189 95.5415 11.7189C90.5451 11.7189 86.1962 15.2853 86.1962 20.7092C86.1962 26.1332 90.1818 30 95.4049 30C100.628 30 102.764 26.3509 102.764 25.2816C102.764 24.2122 102.084 23.1401 100.781 23.1401C99.7592 23.1401 99.3276 23.6527 99.0818 23.8539C98.8359 24.0551 97.7514 25.5682 95.3994 25.5682C93.0501 25.5682 90.8675 23.8898 90.8675 20.8553C90.8702 17.8181 93.0446 16.1396 95.3994 16.1396ZM131.868 20.0505L136.258 15.5361C136.78 15.0069 137.025 14.4419 137.025 13.8438C137.025 12.6449 136.086 11.7271 134.865 11.7271C134.272 11.7271 133.679 11.9752 133.228 12.4685L127.825 18.2839V8.42535C127.825 7.01424 126.918 6 125.558 6C124.197 6 123.154 7.05007 123.154 8.42535V27.5664C123.154 28.9417 124.2 29.9945 125.558 29.9945C126.883 29.9945 127.825 28.9775 127.825 27.5664V21.9963L133.507 29.1125C133.96 29.7134 134.518 29.9945 135.25 29.9945C136.435 29.9945 137.375 29.0436 137.375 27.8089C137.375 27.2797 137.2 26.8222 136.818 26.3289L131.868 20.0505ZM156 19.7115C156 16.2334 153.582 11.7327 147.788 11.7327C141.994 11.7327 138.869 16.5751 138.869 21.1392C138.869 25.706 142.459 29.9972 148.357 29.9972C152.457 29.9972 155.011 27.9274 155.011 26.5659C155.011 25.6123 154.473 24.565 153.17 24.565C151.867 24.565 150.867 25.9926 148.499 25.9926C146.128 25.9926 144.057 24.6559 143.543 22.4208C143.543 22.4208 152.744 22.4208 153.738 22.4208C154.421 22.4263 156 22.1534 156 19.7115ZM143.557 19.141C143.557 19.141 144.36 15.5691 147.646 15.5691C150.933 15.5691 151.468 18.1571 151.468 19.141H143.557ZM112.814 11.7216C108.047 11.7216 105.594 14.2131 105.594 15.7124C105.594 16.5227 106.009 17.7134 107.577 17.7134C109.145 17.7134 109.353 15.8558 112.391 15.8558C115.428 15.8558 115.505 18.1075 115.505 19.7115C115.505 19.7115 111.279 19.7115 109.984 19.7115C108.687 19.7115 104.603 20.6265 104.603 24.7111C104.603 28.7956 108.151 30 110.692 30C113.232 30 114.385 29.2255 115.647 28.1396C115.647 28.1396 115.838 30 117.912 30C119.985 30 120.176 28.1038 120.176 27.7097C120.176 27.3156 120.176 20.4061 120.176 18.7111C120.176 17.0161 119.81 11.7216 112.814 11.7216ZM111.825 26.5687C110.692 26.5687 109.419 25.9706 109.419 24.5678C109.419 23.1649 110.804 22.8535 111.402 22.8535C111.997 22.8535 115.508 22.8535 115.508 22.8535C115.508 22.8535 115.764 26.5687 111.825 26.5687Z" fill="#141414"/>
<path d="M30.6863 17.0952C30.6778 17.0925 6.00703 10.1871 5.22338 9.93942C5.06834 9.89096 4.70189 9.79136 4.45383 9.5706C4.33262 9.46022 4.31006 9.31484 4.35235 9.11562C4.5835 8.02261 5.81535 6.01696 8.18602 4.89702C9.69976 4.13514 12.5102 3.43518 14.878 3.44864C16.5496 3.43518 17.9563 3.80401 18.6215 4.33167C18.6215 4.33167 19.4249 5.08009 20.2818 5.95235C22.9372 8.63373 27.4559 13.3827 27.4643 13.3881L27.4615 13.3854C28.1324 14.0934 29.2797 14.1499 30.0239 13.5119C30.7681 12.8739 30.8272 11.7809 30.1564 11.0755L30.1535 11.0728C30.1507 11.0701 28.138 8.95409 25.9985 6.73845C24.9273 5.62929 23.8252 4.49589 22.9231 3.58595C21.9929 2.65446 21.3812 2.03527 20.9273 1.66914L20.9104 1.65568C19.1825 0.363447 17.0204 0.0134608 14.878 0C11.8224 0.0134608 8.71315 0.769954 6.51725 1.83335C2.74841 3.7394 0.749822 6.81653 0.684987 9.52483C0.673712 10.5452 0.789286 11.5789 2.17899 12.4862C4.10429 13.5361 22.1536 18.3982 27.1204 19.7281C27.1232 19.7281 27.6588 19.9408 27.8759 20.1454C28.2029 20.4577 28.3833 20.9342 28.3833 21.3541L28.3805 31.2128C28.3805 31.5251 28.1155 31.7754 27.7885 31.7754L27.7857 31.7862C24.4848 30.844 8.3918 26.2565 4.42564 25.1258C4.28751 25.0855 3.98307 24.9562 3.78293 24.757C3.56306 24.5363 3.60534 24.3128 3.61944 24.0786C3.61944 24.0678 3.61944 24.0571 3.61944 24.0463C3.82522 22.4175 4.25932 21.5184 4.68498 21.0472C5.25721 20.4227 5.84635 20.2719 6.65819 20.253C6.98518 20.253 7.32345 20.2907 7.63634 20.35C8.25367 20.4415 8.86255 20.9853 9.61237 21.9787C10.3932 22.8698 10.988 24.2859 13.0486 24.8593C13.3897 24.932 13.7308 24.9643 14.0549 24.9643C15.4164 24.9482 16.42 24.4663 17.2262 24.1459C18.038 23.8013 18.6412 23.6048 19.0528 23.6129C19.1458 23.6129 19.236 23.6209 19.329 23.6371C20.0338 23.7421 20.7695 24.3586 21.3107 25.1339C21.5757 25.5081 21.7843 25.8877 21.914 26.1623C22.0464 26.4369 22.0859 26.5661 22.0887 26.5634C22.4101 27.4653 23.4418 27.9499 24.3889 27.643C25.3361 27.3361 25.8435 26.3562 25.5221 25.4543C25.4883 25.3654 25.1303 24.3586 24.3128 23.201C23.501 22.0676 22.1648 20.6515 19.9943 20.245C19.6729 20.1884 19.3572 20.1615 19.05 20.1615C17.6603 20.1723 16.5976 20.6488 15.7773 20.9799C14.9513 21.3353 14.3565 21.5264 14.0521 21.513C13.976 21.513 13.9083 21.5049 13.8407 21.4914L13.8351 21.478C13.6095 21.3757 12.9809 20.5196 12.2057 19.5235C11.4193 18.5543 10.241 17.3186 8.31287 16.9605C7.82802 16.8717 7.26707 16.8044 6.65255 16.8044C5.19801 16.7856 3.27554 17.2567 1.90274 18.8289C0.535587 20.3903 0.00281888 22.6195 0 25.9927V26.025C0.00281888 26.2673 0.0281888 26.3427 0.0338265 26.3965C0.155038 27.0373 0.648342 27.5622 1.30232 27.7453L29.6687 35.9294C30.2156 36.0829 30.8132 35.9833 31.2698 35.6575C31.7265 35.3345 31.9999 34.8149 31.9999 34.2738V18.7589C32.0084 17.9836 31.4671 17.3024 30.6863 17.0952Z" fill="#FF5092"/>
</svg>
